<svg width="35" height="23" viewBox="0 0 35 23" fill="none" xmlns="http://www.w3.org/2000/svg"><path d="M10.18 0c1.01 0 1.944.079 2.797.313.855.156 1.555.47 2.176.86a3.6 3.6 0 0 1 1.399 1.641c.311.703.468 1.565.468 2.502 0 1.095-.234 2.032-.778 2.735-.466.704-1.244 1.329-2.176 1.798 1.321.392 2.33 1.095 2.954 2.034a6.2 6.2 0 0 1 1.01 3.438c0 1.095-.235 2.032-.623 2.814a5.2 5.2 0 0 1-1.71 1.955 8 8 0 0 1-2.486 1.093c-.932.236-1.864.392-2.796.392H0V0zm-.622 8.754c.855 0 1.555-.234 2.098-.624.544-.39.778-1.095.778-1.955 0-.47-.079-.937-.234-1.25s-.389-.548-.698-.782c-.312-.156-.623-.313-1.012-.39-.388-.08-.775-.08-1.243-.08H4.74v5.082h4.82zm.234 9.225c.466 0 .932-.08 1.321-.157a2.7 2.7 0 0 0 1.087-.47c.317-.228.582-.52.777-.859.155-.39.312-.86.312-1.406 0-1.095-.312-1.877-.932-2.424-.623-.47-1.478-.703-2.488-.703H4.74v6.02zm14.999-.08q.93.94 2.796.94c.855 0 1.633-.235 2.254-.625q.933-.705 1.166-1.406h3.808c-.623 1.874-1.555 3.203-2.797 4.064-1.245.78-2.721 1.25-4.508 1.25a9.1 9.1 0 0 1-3.342-.626 6.2 6.2 0 0 1-2.487-1.72 6.2 6.2 0 0 1-1.553-2.58c-.39-1.016-.546-2.109-.546-3.36 0-1.173.157-2.266.546-3.284.374-.98.927-1.88 1.632-2.656a7.9 7.9 0 0 1 2.485-1.72 8.7 8.7 0 0 1 3.265-.627c1.32 0 2.487.236 3.497.783 1.011.546 1.787 1.172 2.408 2.11.622.86 1.09 1.876 1.4 2.971.155 1.094.232 2.189.155 3.438H23.702c0 1.252.466 2.424 1.088 3.05zm4.895-8.207c-.544-.546-1.399-.86-2.41-.86-.698 0-1.244.159-1.71.393s-.775.546-1.087.86a2.1 2.1 0 0 0-.545 1.093c-.077.392-.155.704-.155 1.016h6.994c-.155-1.173-.544-1.953-1.087-2.502m-6.84-8.207h8.704v2.111h-8.7v-2.11z" fill="#000"/></svg>