<svg width="6" height="4" viewBox="0 0 6 4" fill="none" xmlns="http://www.w3.org/2000/svg">
  <path d="M3 3.99999C2.92825 3.99999 2.85865 3.98472 2.79121 3.95419C2.72377 3.92365 2.6678 3.88294 2.62332 3.83205L0.147982 1.0229C0.0493271 0.910939 0 0.768446 0 0.595418C0 0.42239 0.0493271 0.279897 0.147982 0.167938C0.246637 0.0559793 0.372197 0 0.524664 0C0.67713 0 0.802691 0.0559793 0.901345 0.167938L3 2.54961L5.09865 0.167938C5.19731 0.0559793 5.32287 0 5.47534 0C5.6278 0 5.75336 0.0559793 5.85202 0.167938C5.95067 0.279897 6 0.42239 6 0.595418C6 0.768446 5.95067 0.910939 5.85202 1.0229L3.37668 3.83205C3.32287 3.89312 3.26457 3.93648 3.20179 3.96213C3.13901 3.98778 3.07175 4.0004 3 3.99999Z" fill="black" />
</svg>
