<svg width="35" height="35" viewBox="0 0 35 35" fill="none" xmlns="http://www.w3.org/2000/svg"><path d="M26.25 19.478v6.47H22.5V19.91c0-1.516-.543-2.55-1.9-2.55-1.037 0-1.655.697-1.926 1.372-.098.242-.124.578-.124.913v6.302h-3.752s.05-10.223 0-11.282h3.752v1.598l-.024.036h.024v-.036c.499-.77 1.388-1.864 3.381-1.864 2.467 0 4.319 1.614 4.319 5.079M10.873 9.224c-1.283 0-2.123.844-2.123 1.95 0 1.085.816 1.951 2.074 1.951h.024c1.31 0 2.123-.868 2.123-1.951-.024-1.106-.814-1.95-2.098-1.95m-1.9 16.723h3.751V14.665H8.972z" fill="#000"/><path d="M7 3.5A3.5 3.5 0 0 0 3.5 7v21A3.5 3.5 0 0 0 7 31.5h21a3.5 3.5 0 0 0 3.5-3.5V7A3.5 3.5 0 0 0 28 3.5zM7 0h21a7 7 0 0 1 7 7v21a7 7 0 0 1-7 7H7a7 7 0 0 1-7-7V7a7 7 0 0 1 7-7" fill="#000"/></svg>