<svg width="207" height="52" viewBox="0 0 207 52" fill="none" xmlns="http://www.w3.org/2000/svg"><g clip-path="url(#a)"><path d="M44.696 34.888s-1.217-1.398-2.338-2.53c-.763-.772-1.62-1.582-2.433-2.423-.586-.633-1.223-1.221-1.746-1.752l-.901-.905-.889-.892-.428-.43.22-.203 1.84-1.853 2.521-2.53c.523-.526 1.028-1.05 1.526-1.538.926-.892.989-1.006 1.33-1.335q.746-.724 1.373-1.556.472-.693.826-1.455c.25-.608.422-1.246.51-1.898a7.16 7.16 0 0 0-1.02-4.662 7.48 7.48 0 0 0-4.053-3.163 7.66 7.66 0 0 0-3.542-.14A6.14 6.14 0 0 0 34.341 7.2c-1.204 1.265-8.458 8.502-8.546 8.502l-2.18-2.189-1.608-1.613-2.073-2.277-1.4-1.588a9 9 0 0 0-2.76-1.847 7.1 7.1 0 0 0-6.8 1.006q-.507.406-.964.873c-1.853 1.853-1.89 4.428-1.947 5.655-.24 3.752-.24 9.015-.271 14.145v18.15l-.196.196c-.195.196-.592.563-.756.759L.07 51.728c0-1.632-.07-8.977 0-16.82V14.031a15.8 15.8 0 0 1 .976-5.764 16.1 16.1 0 0 1 3.328-4.801A13.3 13.3 0 0 1 9.056.664a13.7 13.7 0 0 1 7.639-.316 7.3 7.3 0 0 1 4.134 2.284c.378.38.8.816 1.26 1.265.725.677 1.374 1.41 1.891 1.898.517.487 2.086 2.094 2.086 2.094l.725-.715s.63-.715.914-1.006c.283-.291.951-1.088.951-1.088s.996-1.14 1.344-1.5a9.8 9.8 0 0 1 2.577-1.954q1.011-.526 2.099-.86a16 16 0 0 1 3.302-.589 12.76 12.76 0 0 1 6.87 1.48 13.35 13.35 0 0 1 6.34 7.32 13.9 13.9 0 0 1 .422 7.711q-.154.682-.384 1.341s-.126.355-.17.468a5 5 0 0 1-.196.437c-.063.12-.233.373-.29.462-.27.373-1.374 1.486-1.374 1.486l-2.665 2.335-2.446 2.454-.145.158.492.494s1.21 1.265 2.03 1.986c.396.367.63.633 1.04.98q.64.587 1.184 1.266.593.788 1.071 1.65.483.899.838 1.855a13.36 13.36 0 0 1-4.632 15.353 12.1 12.1 0 0 1-3.958 1.828 16 16 0 0 1-3.39.6s-.94.033-2.37.039H26.06c-1.5 0-2.559.088-2.798 0l5.237-5.263h8.149a40 40 0 0 1 2.905 0 8.3 8.3 0 0 0 2.735-.791 7.44 7.44 0 0 0 2.82-2.747 7.5 7.5 0 0 0 1.03-3.807 9.5 9.5 0 0 0-1.26-4.118" fill="#1D1D1B"/></g><g clip-path="url(#b)" fill="#1D1D1B"><path d="m73.166 17.013 6.81 12.128 6.798-12.128h1.166v18.664h-1.015V18.886l-6.898 12.296-6.91-12.296v16.791H72.1V17.013zm30.176 18.664h-1.016V33.34q-.296.421-.652.788a6.2 6.2 0 0 1-3.209 1.804 6.1 6.1 0 0 1-3.64-.346 6.3 6.3 0 0 1-2.835-2.377 6.6 6.6 0 0 1-1.065-3.602c0-1.282.37-2.536 1.065-3.601a6.3 6.3 0 0 1 2.835-2.377 6.1 6.1 0 0 1 3.64-.346c1.22.26 2.337.888 3.209 1.804q.347.375.652.788v-1.628h1.016zm-1.016-5.037v-2.131a5.2 5.2 0 0 0-1.417-2.7 5.1 5.1 0 0 0-2.633-1.454 5 5 0 0 0-2.973.3 5.17 5.17 0 0 0-2.31 1.95 5.4 5.4 0 0 0-.867 2.943c0 1.048.301 2.073.867 2.944a5.2 5.2 0 0 0 2.31 1.95c.94.4 1.975.505 2.973.3a5.1 5.1 0 0 0 2.633-1.454 5.3 5.3 0 0 0 1.417-2.648m4.452-6.42h1.016v2.093q.333-.485.74-.904a4.16 4.16 0 0 1 2.759-1.447v1.137a3.1 3.1 0 0 0-1.994 1.11 5 5 0 0 0-1.098 1.62 5.1 5.1 0 0 0-.407 1.932v5.916h-1.016zm8.78 0v-4.87h1.015v4.87h2.27v1.06h-2.27v10.397h-1.015V25.28H113.3v-1.06zm18.01 11.457h-1.016V33.34q-.296.421-.652.788a6.2 6.2 0 0 1-3.209 1.804c-1.22.26-2.487.14-3.641-.346a6.3 6.3 0 0 1-2.834-2.377 6.6 6.6 0 0 1-1.066-3.602c0-1.282.371-2.536 1.066-3.601a6.3 6.3 0 0 1 2.834-2.377 6.1 6.1 0 0 1 3.641-.346 6.23 6.23 0 0 1 3.209 1.804q.347.375.652.788v-1.628h1.016zm-1.016-5.037v-2.131a5.2 5.2 0 0 0-1.417-2.7 5.1 5.1 0 0 0-2.633-1.454 5 5 0 0 0-2.973.3 5.17 5.17 0 0 0-2.31 1.95 5.4 5.4 0 0 0-.868 2.943c0 1.048.302 2.073.868 2.944a5.17 5.17 0 0 0 2.31 1.95c.94.4 1.975.505 2.973.3a5.1 5.1 0 0 0 2.633-1.454 5.3 5.3 0 0 0 1.417-2.648m8.089-13.627a3.78 3.78 0 0 1 2.639 1.157 4 4 0 0 1 1.124 2.718c.033.491-.118.978-.421 1.36-.303.38-.735.629-1.21.694a5.3 5.3 0 0 1 2.672 1.73c.519.573.92 1.249 1.179 1.986a6 6 0 0 1 .326 2.303c.01.878-.15 1.75-.471 2.564a6.6 6.6 0 0 1-1.398 2.176 5.1 5.1 0 0 1-1.575 1.318 5 5 0 0 1-1.949.58h-4.641V17.014zm-1.254 2.415v2.958h1.53a1.47 1.47 0 0 0 .891-.413 1.3 1.3 0 0 0 .401-1.033 1.5 1.5 0 0 0-.414-1.085 1.48 1.48 0 0 0-1.091-.426zm0 5.438v8.383h2.295a3.2 3.2 0 0 0 1.806-1.201 4.2 4.2 0 0 0 .885-1.376 4.3 4.3 0 0 0 .294-1.621 4.2 4.2 0 0 0-1.179-2.932 3.97 3.97 0 0 0-2.847-1.214zm13.959 8.099c.632.42 1.384.606 2.132.53a3.8 3.8 0 0 0 1.557-.304 3.9 3.9 0 0 0 1.315-.911l.602-.723 2.333.865a17 17 0 0 1-1.254 1.628 6.4 6.4 0 0 1-3.211 1.781 6.27 6.27 0 0 1-3.636-.298 6.47 6.47 0 0 1-2.897-2.283 6.77 6.77 0 0 1-1.23-3.536 6.8 6.8 0 0 1 .83-3.658 6.54 6.54 0 0 1 2.625-2.608 6.29 6.29 0 0 1 6.967.669q.29.25.552.53l.652.736-1.179 1.227zm3.913-7.466a3.15 3.15 0 0 0-1.781-.323 4 4 0 0 0-2.848 1.231 4.24 4.24 0 0 0-1.178 2.941 3.5 3.5 0 0 0 .301 1.821zM166.364 17v18.677h-2.357V17zm5.757 0v18.677h-2.358V17zm5.92 2.235a1.71 1.71 0 0 1 .363 1.853 1.7 1.7 0 0 1-.363.549 1.6 1.6 0 0 1-1.166.49 1.57 1.57 0 0 1-1.154-.49 1.7 1.7 0 0 1-.492-1.201 1.7 1.7 0 0 1 .492-1.202 1.57 1.57 0 0 1 1.154-.49 1.6 1.6 0 0 1 1.166.49m0 4.443v12h-2.283v-12zm5.957 3.217v8.783h-2.358v-12h2.358v1.396a2.94 2.94 0 0 1 1.131-1.561 2.8 2.8 0 0 1 1.829-.493 3.7 3.7 0 0 1 1.653.336c.519.24.979.597 1.344 1.046a5.52 5.52 0 0 1 1.154 3.474v7.75h-2.345v-7.75a2.5 2.5 0 0 0-.191-.97 2.4 2.4 0 0 0-.549-.812 2.4 2.4 0 0 0-.805-.553 2.3 2.3 0 0 0-.951-.183 2.47 2.47 0 0 0-1.743.723 2.7 2.7 0 0 0-.527.814m20.606-2.377v-.84h2.358V35.69h-2.358v-1.51a5.3 5.3 0 0 1-1.781 1.337 5.15 5.15 0 0 1-2.157.471 6.3 6.3 0 0 1-2.553-.418 6.4 6.4 0 0 1-2.188-1.418 6.65 6.65 0 0 1-1.471-2.188 6.8 6.8 0 0 1 0-5.216 6.65 6.65 0 0 1 1.471-2.19 6.4 6.4 0 0 1 2.188-1.417 6.3 6.3 0 0 1 2.553-.418c.742 0 1.475.16 2.154.469s1.286.76 1.784 1.326m0 5.722v-1.73a4.2 4.2 0 0 0-.991-1.947 4 4 0 0 0-1.817-1.154 3.9 3.9 0 0 0-2.134-.04 4 4 0 0 0-1.855 1.087 4.23 4.23 0 0 0-1.069 2.903 4.22 4.22 0 0 0 1.183 2.857 3.98 3.98 0 0 0 2.773 1.217 3.97 3.97 0 0 0 2.819-1.1 3.9 3.9 0 0 0 1.091-2.093"/></g><defs><clipPath id="a"><path fill="#fff" d="M0 0h52v52H0z"/></clipPath><clipPath id="b"><path fill="#fff" d="M72 17h135v19H72z"/></clipPath></defs></svg>