<svg width="18" height="18" viewBox="0 0 16 12" fill="none" xmlns="http://www.w3.org/2000/svg">
<path d="M2 12C1.5875 12 1.23425 11.853 0.940251 11.559C0.646251 11.265 0.499501 10.912 0.500001 10.5V1.5C0.500001 1.0875 0.647001 0.734251 0.941001 0.440251C1.235 0.146251 1.588 -0.000498727 2 1.27335e-06H14C14.4125 1.27335e-06 14.7658 0.147001 15.0598 0.441001C15.3538 0.735001 15.5005 1.088 15.5 1.5V10.5C15.5 10.9125 15.353 11.2658 15.059 11.5598C14.765 11.8538 14.412 12.0005 14 12H2ZM14 3L8.39375 6.50625C8.33125 6.54375 8.2655 6.572 8.1965 6.591C8.1275 6.61 8.062 6.61925 8 6.61875C7.9375 6.61875 7.87175 6.6095 7.80275 6.591C7.73375 6.5725 7.66825 6.54425 7.60625 6.50625L2 3V10.5H14V3ZM8 5.25L14 1.5H2L8 5.25ZM2 3.1875V2.08125V2.1V2.091V3.1875Z" fill="black"/>
</svg>
