<svg width="46" height="46" viewBox="0 0 46 46" fill="none" xmlns="http://www.w3.org/2000/svg"><path d="M39.539 30.863s-1.076-1.237-2.069-2.239c-.674-.683-1.433-1.399-2.152-2.143-.518-.56-1.081-1.08-1.544-1.55l-.797-.8-.786-.79-.38-.38.196-.18 1.628-1.639 2.23-2.238c.462-.465.908-.93 1.349-1.36.82-.79.875-.89 1.176-1.181q.66-.641 1.215-1.377.418-.613.73-1.287a6.8 6.8 0 0 0 .452-1.678 6.34 6.34 0 0 0-.903-4.125A6.62 6.62 0 0 0 36.3 5.098a6.8 6.8 0 0 0-3.134-.123 5.43 5.43 0 0 0-2.787 1.393c-1.065 1.12-7.482 7.522-7.56 7.522l-1.93-1.937-1.42-1.427-1.835-2.014-1.238-1.405a8 8 0 0 0-2.442-1.634 6.28 6.28 0 0 0-6.015.89q-.45.36-.853.772c-1.64 1.64-1.672 3.917-1.723 5.003-.212 3.319-.212 7.974-.24 12.513v16.055l-.172.174c-.173.173-.524.498-.67.671L.062 45.76c0-1.443-.06-7.94 0-14.88V12.412a14 14 0 0 1 .865-5.098A14.3 14.3 0 0 1 3.87 3.067 11.7 11.7 0 0 1 8.012.587a12.13 12.13 0 0 1 6.756-.28 6.48 6.48 0 0 1 3.658 2.021c.334.336.708.722 1.115 1.12.64.598 1.215 1.247 1.672 1.678s1.846 1.852 1.846 1.852l.64-.632s.558-.632.81-.89c.25-.257.841-.962.841-.962s.88-1.008 1.188-1.327a8.7 8.7 0 0 1 2.28-1.729 11 11 0 0 1 1.856-.76 14 14 0 0 1 2.922-.521 11.3 11.3 0 0 1 6.076 1.31 11.8 11.8 0 0 1 5.609 6.474c.765 2.193.895 4.558.373 6.822q-.136.602-.34 1.186s-.111.313-.15.414q-.077.198-.173.386c-.056.107-.206.33-.256.409-.24.33-1.216 1.315-1.216 1.315l-2.358 2.065-2.163 2.171-.128.14.434.436s1.07 1.12 1.796 1.758c.35.324.557.56.92.867q.567.519 1.048 1.12.525.696.947 1.46.427.794.742 1.64a11.82 11.82 0 0 1-1.31 10.683 11.6 11.6 0 0 1-2.788 2.898 10.7 10.7 0 0 1-3.501 1.617c-.978.285-1.983.463-3 .532 0 0-.83.028-2.096.034h-9.009c-1.327 0-2.264.078-2.475 0l4.633-4.656h7.208c1.466-.05 2.57 0 2.57 0a7.3 7.3 0 0 0 2.42-.7 6.6 6.6 0 0 0 2.495-2.43c.6-1.02.914-2.183.911-3.367a8.4 8.4 0 0 0-1.115-3.643" fill="#1D1D1B"/></svg>