<svg width="30" height="30" viewBox="0 0 30 30" fill="none" xmlns="http://www.w3.org/2000/svg"><path d="m29.698 25.54-7.639-7.638a1.036 1.036 0 0 0-1.264-.15 6.64 6.64 0 0 0-2.892 3.675c-.247.771-1.147 1.125-1.843.707l-.01-.01-.012-.012a23.75 23.75 0 0 1-8.153-8.153c0-.01-.01-.021-.01-.021-.429-.697-.075-1.597.696-1.843a6.57 6.57 0 0 0 3.675-2.893 1.04 1.04 0 0 0-.15-1.264L4.456.3A1.036 1.036 0 0 0 3.194.15 6.56 6.56 0 0 0 .01 5.517v.01C0 5.636 0 5.743 0 5.85c0 .15.01.29.021.429a24.8 24.8 0 0 0 3.525 12.02 23.75 23.75 0 0 0 8.153 8.154l.011.01a24.7 24.7 0 0 0 12.182 3.525c.085 0 .171.01.257.01h.6v-.02a6.63 6.63 0 0 0 5.11-3.172 1.05 1.05 0 0 0-.16-1.264" fill="#fff"/></svg>