<svg width="49" height="53" viewBox="0 0 49 53" fill="none" xmlns="http://www.w3.org/2000/svg"><path fill-rule="evenodd" clip-rule="evenodd" d="M21.296 0h7.35a.985.985 0 0 1 .986.985v2.442h11.616a3.9 3.9 0 0 1 .943-1.5 3.975 3.975 0 0 1 5.637 0 3.975 3.975 0 0 1 0 5.638 3.975 3.975 0 0 1-5.637 0 3.95 3.95 0 0 1-.943-1.568h-5.996a21.6 21.6 0 0 1 5.191 4.19c3 3.313 4.98 7.42 5.706 11.83h1.61a1.173 1.173 0 0 1 1.2 1.183v5.388a1.174 1.174 0 0 1-1.174 1.182h-5.354a1.183 1.183 0 0 1-1.182-1.182V23.2a1.18 1.18 0 0 1 1.182-1.182h1.233a20.8 20.8 0 0 0-5.037-10.152 18.93 18.93 0 0 0-8.995-5.543v2.1a.985.985 0 0 1-.986 1.002h-7.35a.976.976 0 0 1-.985-.985V6.322a18.85 18.85 0 0 0-9.167 5.775 21.05 21.05 0 0 0-4.84 9.92h1.208A1.18 1.18 0 0 1 8.694 23.2v5.388a1.18 1.18 0 0 1-1.182 1.182h-5.33a1.18 1.18 0 0 1-1.198-1.182V23.2a1.18 1.18 0 0 1 1.199-1.182h1.636a23.5 23.5 0 0 1 5.5-11.54 21.5 21.5 0 0 1 5.372-4.48H7.76a3.9 3.9 0 0 1-.943 1.49 3.97 3.97 0 0 1-2.819 1.174 4.03 4.03 0 0 1-2.827-1.173 3.975 3.975 0 0 1 0-5.637 3.975 3.975 0 0 1 5.637 0c.438.442.764.982.951 1.576h12.55V.985A.98.98 0 0 1 21.297 0m14.521 34.902-3.812 9.75-14.059-.18-3.89-9.57c3.342-5.997 6.743-13.27 8.49-19.704l1.851.205-.068 17.237a1.816 1.816 0 1 0 1.105-.043l.051-17.056 2.125-.12c1.55 6.434 4.917 13.707 8.207 19.455zm-4.146 13.93H18.015v-2.724H31.67z" fill="#283044"/><path fill="#283044" d="M20.684 50.297h8.567v2.57h-8.567z"/></svg>