<svg width="62" height="49" viewBox="0 0 62 49" fill="none" xmlns="http://www.w3.org/2000/svg"><path fill-rule="evenodd" clip-rule="evenodd" d="M24.503 17.528c3.593 2.575 9.35-.19 11.616 4.29.598 1.188.728 2.815.19 4.107-.22.52-.54.983-.979 1.337q-.29.234-.648.415c-2.954 1.466-6.038-.584-7.67-3.064-1.5-2.285-2.154-5.134-2.509-7.085M49.9 0H3.622A3.635 3.635 0 0 0 0 3.622V42.43a3.635 3.635 0 0 0 3.622 3.623h36.104l-3.128-2.665H3.552a.97.97 0 0 1-.708-.294 1 1 0 0 1-.294-.709V10.144h-.015 48.293v14.803l2.694 2.186V3.623A3.635 3.635 0 0 0 49.9 0M7.07 4.071a1.789 1.789 0 1 0 0 3.577 1.79 1.79 0 0 0 1.791-1.785c0-.988-.803-1.792-1.79-1.792m12.13 0c-.988 0-1.792.804-1.792 1.792s.798 1.786 1.791 1.786c.988 0 1.792-.803 1.792-1.786 0-.988-.804-1.792-1.792-1.792m-6.063 0a1.789 1.789 0 1 0 0 3.577 1.79 1.79 0 0 0 1.791-1.785 1.796 1.796 0 0 0-1.79-1.792m29.588 33.12c2-1.596 3.552-3.437 4.61-5.548L60.208 45.22c.973.919 1.522 1.702.708 3.109q-.606.623-1.287.668c-.45.03-.923-.13-1.417-.489zm-6.79-7.878c.867-.464 2.055-1.611 2.34-2.864l8.057 4.42c-1.162 2.316-2.644 4.297-4.675 5.704-2.12-2.844-3.308-4.56-5.723-7.26" fill="#283044"/></svg>