<svg width="53" height="51" viewBox="0 0 53 51" fill="none" xmlns="http://www.w3.org/2000/svg"><path d="M51 14.431v21.94c0 .252-.078.5-.226.718a1.55 1.55 0 0 1-.615.52L27.292 48.625a1.8 1.8 0 0 1-.792.178c-.277 0-.55-.061-.792-.178L2.84 37.61a1.55 1.55 0 0 1-.615-.52A1.3 1.3 0 0 1 2 36.37V14.431c0-.252.079-.5.226-.717.148-.218.36-.397.615-.52L25.708 2.178C25.95 2.06 26.223 2 26.5 2s.55.061.792.178L50.16 13.194c.255.123.467.302.615.52.148.217.226.465.226.717" stroke="#283044" stroke-width="3.5" stroke-linecap="round" stroke-linejoin="round"/><path d="M3.438 14.292 25.705 25.02c.243.117.516.178.794.178.277 0 .55-.061.793-.178L49.64 14.253M26.5 46.646V25.4" stroke="#283044" stroke-width="3.5" stroke-linecap="round" stroke-linejoin="round"/></svg>