<svg width="46" height="46" viewBox="0 0 46 46" fill="none" xmlns="http://www.w3.org/2000/svg"><path fill-rule="evenodd" clip-rule="evenodd" d="M40.77 42.25a1.48 1.48 0 0 0 1.48-1.48v-3.097H3.75v3.096a1.48 1.48 0 0 0 1.48 1.481zm-23.551-8.077H42.25v-4.297l-11.578-8.297-.005-.003zm15.533-15.408 9.498 6.805V5.23a1.48 1.48 0 0 0-1.48-1.48H5.23a1.48 1.48 0 0 0-1.48 1.48v28.943h8.35L28.426 18.88q.037-.035.076-.068a3.365 3.365 0 0 1 4.25-.047M45.75 5.23v35.538a4.98 4.98 0 0 1-4.98 4.981H5.23a4.98 4.98 0 0 1-4.98-4.98V5.23A4.98 4.98 0 0 1 5.23.25h35.54a4.98 4.98 0 0 1 4.98 4.98m-33.923 9.692a3.096 3.096 0 1 1 6.192 0 3.096 3.096 0 0 1-6.192 0m3.096-6.596a6.596 6.596 0 1 0 0 13.192 6.596 6.596 0 0 0 0-13.192" fill="#283044"/></svg>