<svg width="49" height="52" viewBox="0 0 49 52" fill="none" xmlns="http://www.w3.org/2000/svg"><path d="M48.993 2.065C48.993.586 48.421 0 46.939 0H9.767C8.28 0 7.7.58 7.7 2.065v22.736H1.252C.56 24.801 0 25.363 0 26.053v15.814c0 .692.56 1.252 1.252 1.252H7.7v6.27c0 1.49.578 2.066 2.067 2.066h23.74L49 36.56c0-11.292-.007-23.199-.007-34.495M9.144 24.801V1.6h38.417c0 10.588-.004 23.515-.004 34.1H34.445c-.84 0-1.51.683-1.51 1.51v12.504H9.144V43.12H27.28c.692 0 1.253-.56 1.253-1.252V26.053c0-.69-.56-1.252-1.253-1.252zm7.641 9.932c.536 0 .549.916 0 .916H4.062c-.549 0-.536-.916 0-.916zM4.154 28.226h4.403c.274 0 .498.228.498.5v4.026a.504.504 0 0 1-.498.499H4.154a.5.5 0 0 1-.5-.5v-4.026a.5.5 0 0 1 .5-.499m6.809 11.726c.536 0 .549-.916 0-.916H4.062c-.549 0-.537.916 0 .916zm-6.901-3.066c-.537 0-.549.913 0 .913H14.21c.55 0 .537-.913 0-.913zm-2.81-10.833h26.03v15.814H1.251zM13.42 5.042h6.992c.436 0 .793.361.793.792v6.395c0 .43-.362.792-.793.792H13.42a.8.8 0 0 1-.793-.792V5.834c0-.436.357-.792.793-.792m30.099.336c.73 0 .747 1.246 0 1.246H23.684c-.747 0-.73-1.246 0-1.246zm-7.93 7.307c.728 0 .746-1.247 0-1.247H23.683c-.747 0-.73 1.247 0 1.247zM23.683 8.407c-.73 0-.746 1.246 0 1.246H40.01c.748 0 .731-1.246 0-1.246z" fill="#283044"/></svg>