<svg width="49" height="48" viewBox="0 0 49 48" fill="none" xmlns="http://www.w3.org/2000/svg"><path d="M48.996 9.883a1.52 1.52 0 0 0-.718-1.185L34.62.23a1.54 1.54 0 0 0-1.775.109L24.5 7.045 16.156.34A1.54 1.54 0 0 0 14.38.23L.721 8.699a1.53 1.53 0 0 0-.717 1.185c-.036.486.166.96.542 1.273l7.913 6.604-6.779 5.29a1.515 1.515 0 0 0 .096 2.463l6.273 4.154a1.5 1.5 0 0 0-.505 1.123v6.105c0 .53.277 1.02.73 1.298l15.422 8.68a1.54 1.54 0 0 0 1.606-.002l15.243-8.68a1.53 1.53 0 0 0 .728-1.296v-7.161a1.5 1.5 0 0 0-.029-.287l5.942-3.934a1.53 1.53 0 0 0 .681-1.205 1.52 1.52 0 0 0-.582-1.257l-6.75-5.288 7.918-6.607c.377-.314.579-.787.543-1.273M35.26 17.776 24.5 24.474l-10.761-6.698L24.5 10.819zM4.134 10.173l10.943-6.784 6.82 5.48-10.89 7.04zm6.855 9.485 10.824 6.737-6.134 4.664-10.442-6.913zm-.378 11.704 4.28 2.834c.543.36 1.26.336 1.78-.058l6.198-4.712v13.455l-12.258-6.836zm27.598 4.683-12.274 6.93v-13.69l6.354 4.85a1.54 1.54 0 0 0 1.784.06l4.135-2.739zm5.52-11.902-10.443 6.914-6.104-4.66 10.825-6.738zm-5.738-8.234-10.889-7.04 6.82-5.48 10.943 6.784z" fill="#283044"/></svg>