<svg width="947" height="757" viewBox="0 0 947 757" fill="none" xmlns="http://www.w3.org/2000/svg"><path fill="#fff" d="M0 0h947v757H0z"/><path d="M240.636 549.381c-4.858.878-6.895-2.478-8.744-5.551-6.927-11.636-13.603-23.398-20.529-35.065-4.2-7.12-.596-10.726 5.735-12.89 62.684-21.485 104.744-68.437 143.733-118.494 58.954-75.587 114.491-154.029 185.794-219.047 16.548-15.086 34.319-28.761 51.212-43.47 7.522-6.556 13.101-7.182 18.46 2.321 19.213 33.999 38.457 67.934 58.108 101.682 5.767 9.88-2.539 9.159-7.209 10.445-27.142 7.402-54.19 15.242-79.545 27.568-96.031 46.576-173.445 114.385-230.831 204.65-26.986 42.436-67.949 66.367-111.984 86.44a41 41 0 0 1-4.2 1.411" fill="#DC2656"/><path d="M276.118 604.829c8.337-4.799 16.893-10.538 26.107-14.867 50.743-23.805 87.757-61.881 118.628-108.143 48.988-73.737 114.711-128.937 194.319-167.609 27.8-13.518 57.669-21.014 87.757-27.13 4.857-.973 10.499-2.322 13.947 3.7 11.126 19.321 24.634 37.637 21.939 62.038-.878 8.375-3.134 12.766-11.628 15.682a1532 1532 0 0 0-162.068 65.865c-61.994 30.015-110.949 73.549-135.897 138.002-15.671 40.773-38.984 49.429-82.335 49.963-25.784-1.29-42.506-3.204-65.191-11.071-2.037-1.38-5.014-1.82-5.578-6.43M540.889 75.815c-15.89 14.647-28.207 26.001-40.744 37.637-62.84 58.494-115.494 125.707-166.832 194.144-26.546 35.378-52.622 71.384-87.756 99.204-18.586 14.71-38.457 26.628-61.869 32.054-7.334 1.693-12.066 1.662-16.235-6.273-9.402-18.003-21.061-34.845-30.182-53.005-12.536-25.279-9.81-29.921 16.455-38.421a498 498 0 0 0 105.464-46.67c47.828-28.918 81.959-70.004 107.878-118.775a486.2 486.2 0 0 1 60.552-91.05c3.542-4.078 6.99-8.688 12.537-8.72 31.874-.282 63.749-.125 100.732-.125" fill="#283044"/><path d="m690.264 452.968-45.226 78.41c-10.688 18.536-21.281 37.135-32.126 55.577-14.197 24.182-35.886 35.505-63.529 35.881-19.307.22-38.644-.408-57.92.188-11.377.376-14.041-.973-8.995-13.361 23.663-58.149 66.727-95.817 122.546-121.128 26.829-12.138 53.532-24.652 85.25-35.567m-340.12-374.58c-24.635 35.378-41.684 74.96-67.729 108.927-28.709 37.637-67.479 61.129-112.266 78.724.251-8.092 5.171-13.205 8.211-18.568a11481 11481 0 0 1 74.123-128.593c21.689-37.354 54.692-50.997 97.661-40.49" fill="#DC2656"/></svg>