<svg width="946" height="757" viewBox="0 0 946 757" fill="none" xmlns="http://www.w3.org/2000/svg"><path fill="#fff" d="M0 0h946v757H0z"/><g clip-path="url(#a)"><path d="M432.497 638.5c160.989 0 291.497-130.844 291.497-292.25C723.994 184.845 593.486 54 432.497 54S141 184.845 141 346.25c0 161.406 130.508 292.25 291.497 292.25" fill="#F4F4F4"/><path d="M452.519 397.839s-83.103-74.252-136.064-81.155c-51.727-6.747-102.188 6.475-125.007 50.074-22.818 43.598-18.949 85.759-18.374 90.939 2.467 22.242 18.607 60.907 40.043 80.009 21.96 19.568 45.643 44.893 117.98 15.541 72.336-29.353 99.462-54.393 114.963-56.983s62.862-29.353 104.63 12.95c41.768 42.304-45.786 122.889-45.786 122.889s70.109-11.96 135.774-77.419c49.085-48.921 70.618-121.736 70.618-121.736s-52.676 56.407-65.161 60.726-48.226 13.811-98.746-22.159c-45.184-32.176-94.87-73.676-94.87-73.676" fill="#DC2656"/><path d="M452.519 397.839s94.651-89.003 168.783-77.704c73.628 11.222 82.244 43.599 91.286 82.451s-30.873 97.129-87.838 97.129c-41.767 0-77.936-18.992-114.104-46.188s-58.127-55.688-58.127-55.688M208.958 533.678s59.277 45.755 119.988 18.992c60.711-26.762 99.605-49.497 99.605-49.497s48.943-26.769 89.846-14.68c40.902 12.09 45.643 38.418 45.643 62.163 0 21.66-3.875 57.844-43.06 75.114-39.184 17.27-105.062 18.992-148.115 9.499-41.439-9.143-89.259-36.261-100.858-43.689-.452-.291.329.24 0 0-46.399-34.306-63.049-57.902-63.049-57.902" fill="#293044"/></g><path d="m390.502 160.343 91.65 74.363 3.035-2.809-92.459-74.738c-.607.937-1.416 2.061-2.226 3.184m-8.699 19.668 80.725 65.372c1.416-.562 3.035-.937 4.653-1.686l-84.164-68.181q-.91 2.528-1.214 4.495m3.642-10.489 88.008 71.366 3.642-2.248-90.031-72.865c-.607 1.312-1.214 2.623-1.619 3.747m-5.058 23.039 68.99 56.006c1.821-.187 3.845-.562 5.463-.936l-74.453-60.315zm2.428 15.36 49.568 40.272a50.4 50.4 0 0 0 7.486.562l-58.672-47.578c.404 2.248 1.011 4.683 1.618 6.744m6.272 12.924c6.676 10.303 16.792 18.544 28.729 23.227zm52.805-85.976 61.1 49.45c-.405-2.247-.607-4.308-1.214-6.368l-52.603-42.707c-2.63-.188-4.856-.375-7.283-.375m-14.568 1.498 75.667 61.438c.202-1.685.405-3.371.202-5.057l-70.811-57.317c-1.618.374-3.439.562-5.058.936m35.001 1.686 34.394 27.723c-3.439-6.182-7.89-11.426-13.353-16.109l-2.023-1.499c-5.665-4.495-12.139-7.867-19.018-10.115m-56.85 7.68 90.436 73.239c.809-1.124 1.416-2.435 2.023-3.746l-88.615-71.928c-1.214.749-2.63 1.686-3.844 2.435m-8.093 6.743 92.661 74.925c.81-1.124 1.821-2.06 2.63-3.184l-91.852-74.55c-1.416.936-2.428 1.873-3.439 2.809m18.007-12.175 84.973 68.931c.405-1.499 1.012-2.81 1.416-4.308l-81.938-66.496c-1.417.562-3.035 1.311-4.451 1.873" fill="#283044"/><defs><clipPath id="a"><path fill="#fff" d="M141 54h583v587H141z"/></clipPath></defs></svg>