<svg width="947" height="757" viewBox="0 0 947 757" fill="none" xmlns="http://www.w3.org/2000/svg"><path fill="#fff" d="M0 0h947v757H0z"/><g clip-path="url(#a)"><path d="M150.556 541.84c26.295-25.235 50.882-28.574 73.063-28.378 20.605.046 36.915-.043 54.371-16.479 17.404-16.806 20.819-29.539 21.054-49.519.022-21.455.443-48.237 26.685-73.841 26.295-25.235 54.241-25.493 76.422-25.297 20.605.046 36.915-.043 54.372-16.479 17.403-16.806 17.459-32.62 17.693-52.6.023-21.455.444-48.237 26.686-73.841 26.295-25.235 54.241-25.493 76.422-25.297 20.605.046 22.72-7.172 40.176-23.609l25.5 25c-26.295 25.235-43.873 28.591-66.054 28.395-20.605-.046-36.916.043-54.372 16.479-17.403 16.805-17.459 32.62-17.693 52.6-.023 21.455-.444 48.237-26.686 73.841-26.295 25.235-54.241 25.493-76.422 25.297-20.605-.046-36.916.043-54.372 16.479-17.403 16.805-17.459 32.62-17.694 52.6-.022 21.455-.443 48.236-26.685 73.84-26.295 25.236-57.6 22.412-79.781 22.217-20.605-.046-33.556 3.124-51.013 19.56z" fill="#DC2656"/><path d="M216.432 260.633h-3.73a78.63 78.63 0 0 1-55.645-23.089A78.92 78.92 0 0 1 134 181.8a78.93 78.93 0 0 1 23.051-55.756 78.63 78.63 0 0 1 55.651-23.094 78.6 78.6 0 0 1 30.13 6.007 78.7 78.7 0 0 1 25.538 17.105 78.9 78.9 0 0 1 17.058 25.598 79 79 0 0 1 5.976 30.19h-74.972zm351.504-78.783h74.972a78.93 78.93 0 0 0-23.051-55.755A78.63 78.63 0 0 0 564.206 103a78.63 78.63 0 0 0-55.651 23.095 78.93 78.93 0 0 0-23.051 55.755 78.92 78.92 0 0 0 23.075 55.712 78.63 78.63 0 0 0 55.627 23.071h3.73zm-175.5 78.783h3.73a78.63 78.63 0 0 0 55.627-23.071 78.92 78.92 0 0 0 23.075-55.712 78.93 78.93 0 0 0-23.051-55.755A78.63 78.63 0 0 0 396.166 103a78.63 78.63 0 0 0-55.64 23.101 78.92 78.92 0 0 0-23.045 55.749h74.955zm-177.348 94.572h-74.972a78.93 78.93 0 0 0 23.063 55.734 78.63 78.63 0 0 0 55.639 23.083 78.6 78.6 0 0 0 55.639-23.09 78.9 78.9 0 0 0 23.046-55.743 78.93 78.93 0 0 0-23.045-55.75 78.63 78.63 0 0 0-55.64-23.1q-1.881 0-3.73.101zm175.063 173.962h-74.972a79 79 0 0 0 5.991 30.172 78.9 78.9 0 0 0 17.061 25.577 78.7 78.7 0 0 0 25.533 17.088A78.6 78.6 0 0 0 393.881 608a78.6 78.6 0 0 0 30.117-5.996 78.7 78.7 0 0 0 25.533-17.088 78.8 78.8 0 0 0 17.061-25.577 78.97 78.97 0 0 0 0-60.347 78.9 78.9 0 0 0-17.06-25.58 78.7 78.7 0 0 0-25.533-17.093 78.6 78.6 0 0 0-30.118-6.002q-1.865 0-3.73.101zm178.726-173.356h-74.972a78.93 78.93 0 0 0 23.052 55.756 78.63 78.63 0 0 0 55.65 23.094 78.63 78.63 0 0 0 55.651-23.094 78.93 78.93 0 0 0 23.051-55.756 78.93 78.93 0 0 0-23.051-55.755 78.63 78.63 0 0 0-55.651-23.095q-1.865 0-3.73.101zm-175.702-78.749a68 68 0 0 0-3.73-.101 78.63 78.63 0 0 0-55.639 23.101 78.93 78.93 0 0 0-23.046 55.749c0 20.91 8.29 40.963 23.046 55.75a78.62 78.62 0 0 0 55.639 23.1 78.6 78.6 0 0 0 30.118-6.002 78.7 78.7 0 0 0 25.533-17.092 78.9 78.9 0 0 0 17.06-25.581 79 79 0 0 0 5.991-30.175h-74.972zM217.507 450.418a69 69 0 0 0-3.73-.101 78.63 78.63 0 0 0-55.651 23.095 78.93 78.93 0 0 0-23.051 55.755 79 79 0 0 0 5.991 30.172 78.9 78.9 0 0 0 17.061 25.577 78.7 78.7 0 0 0 25.533 17.088A78.6 78.6 0 0 0 213.777 608a78.6 78.6 0 0 0 55.639-23.09 78.9 78.9 0 0 0 23.046-55.743h-74.955z" fill="#283044"/></g><defs><clipPath id="a"><path fill="#fff" d="M134 103h517.292v505H134z"/></clipPath></defs></svg>